# xmcd CD database file
#
# Track frame offsets:
#	150
#	11070
#	28692
#	43650
#	62190
#	78072
#	97350
#	117090
#	133055
#	148462
#	162559
#	178607
#	196050
#	214267
#	232007
#	248930
#	268472
#
# Disc length: 3826 seconds
#
# Revision: 0
# Processed by: cddbd v1.5.1PL0 Copyright (c) Steve Scherf et al.
# Submitted via: Feurio! 1.67 - http://www.feurio.com
#
DISCID=080ef011
DTITLE=Various Artist - Gel du magst mi
DYEAR=1995
DGENRE=country
TTITLE0=John Fox Band - Schön is des G'fühl
TTITLE1=Ludwig Hirsch - Gel du magst mi
TTITLE2=Stefanie Werger - I wü di' g'spürn
TTITLE3=Georg Danzer - Bitte hab mich lieb
TTITLE4=Carl Payer - Du bist wi a Wunder
TTITLE5=Ulli Bäer - Pack mi Baby
TTITLE6=Hansi Dujmic - Ausgeliefert
TTITLE7=Wolfgang Ambros - Langsam wochs ma z'amm
TTITLE8=André Heller - Wie mei Herzschlag
TTITLE9=STS - Gö, du bleibst heut nacht bei mir
TTITLE10=Reinhard Fendrich - Weus'd a Herz hast wia a Bergwerk
TTITLE11=Boris Bukowski - Trag meine Liebe wie einen Mantel
TTITLE12=Wilfried - Lass mi bei dir sein
TTITLE13=Peter Cornelius - Streicheleinheiten
TTITLE14=E.A.V. - Oh, nur du
TTITLE15=Rudi Nemeczek - Stille Konsequenz
TTITLE16=Jazz Gitti - I möcht net ohne di sein
EXTD=
EXTT0=
EXTT1=
EXTT2=
EXTT3=
EXTT4=
EXTT5=
EXTT6=
EXTT7=
EXTT8=
EXTT9=
EXTT10=
EXTT11=
EXTT12=
EXTT13=
EXTT14=
EXTT15=
EXTT16=
PLAYORDER=
